<svg width="691" height="320" viewBox="0 0 691 320" fill="none" xmlns="http://www.w3.org/2000/svg">
<path d="M211.672 190.727C206.242 193.895 216.172 187.716 211.672 190.727C288.672 172.716 284.547 26.2268 347.672 26.2268L496.672 26.2268C424.172 31.2372 415.5 189.954 346 190.727C276.5 191.5 211.672 190.727 211.672 190.727Z" fill="url(#paint0_linear_1_16)"/>
<path d="M193 167.51C187.57 170.679 197.5 164.5 193 167.51C270 149.5 265.875 3.01036 329 3.01037L478 3.01036C405.5 8.02072 338 167.51 338 167.51H193Z" fill="#A0CD39"/>
<path d="M310.5 34.5V85C310.5 85 313.5 87.5 321.5 87.5C329.5 87.5 332 85 332 85V92L334 97C334 97 333.5 103 324 106C314.5 109 298.5 101.5 298.5 101.5C298.5 101.5 303 115 301 135C299 155 292.5 168.5 292.5 168.5H320.5C350.5 168.5 377 93.5 377 93.5L376 92.5L362 79C362 79 371.5 69 373 66C374.5 63 377 54.5 376.5 49C376 43.5 376 38.5 369.5 29C363 19.5 356 18 346.5 18C337 18 320.5 21.5 320.5 21.5C320.5 21.5 314.5 21 311.5 20.5C308.5 20 303 16 303 16C303 16 303 24.5 304.5 28.5C306 32.5 310.5 34.5 310.5 34.5Z" fill="url(#paint1_linear_1_16)"/>
<path d="M356 101.5H336.5V107.5L341.5 111C341.5 111 344 134.5 326.5 156C309 177.5 282.5 182 282.5 182L285 197.5H312C320 195 331 181.5 341.5 163.5C352 145.5 350.5 111 350.5 111L355.5 107.5L356 101.5Z" fill="#B4D433"/>
<path d="M2.625 233.273H16.3864L25.8523 256.341H26.3295L35.7955 233.273H49.5568V274H38.7386V250.455H38.4205L29.3523 273.682H22.8295L13.7614 250.295H13.4432V274H2.625V233.273ZM76.5764 274H64.6446L78.0878 233.273H93.2014L106.645 274H94.7128L85.8037 244.489H85.4855L76.5764 274ZM74.3491 257.932H96.781V266.205H74.3491V257.932ZM142.136 246C142.03 244.674 141.533 243.64 140.644 242.898C139.769 242.155 138.437 241.784 136.647 241.784C135.507 241.784 134.572 241.923 133.843 242.202C133.127 242.467 132.597 242.831 132.252 243.295C131.908 243.759 131.729 244.29 131.715 244.886C131.689 245.377 131.775 245.821 131.974 246.219C132.186 246.603 132.517 246.955 132.968 247.273C133.419 247.578 133.996 247.856 134.698 248.108C135.401 248.36 136.236 248.585 137.204 248.784L140.545 249.5C142.799 249.977 144.728 250.607 146.332 251.389C147.936 252.171 149.248 253.093 150.269 254.153C151.29 255.201 152.039 256.381 152.516 257.693C153.007 259.006 153.259 260.437 153.272 261.989C153.259 264.667 152.589 266.934 151.264 268.79C149.938 270.646 148.042 272.058 145.576 273.026C143.123 273.993 140.174 274.477 136.727 274.477C133.187 274.477 130.098 273.954 127.46 272.906C124.835 271.859 122.793 270.248 121.335 268.074C119.89 265.886 119.16 263.089 119.147 259.682H129.647C129.713 260.928 130.025 261.975 130.582 262.824C131.139 263.672 131.921 264.315 132.928 264.753C133.949 265.19 135.162 265.409 136.568 265.409C137.748 265.409 138.735 265.263 139.531 264.972C140.326 264.68 140.929 264.276 141.34 263.759C141.751 263.241 141.963 262.652 141.977 261.989C141.963 261.366 141.758 260.822 141.36 260.358C140.976 259.881 140.339 259.456 139.451 259.085C138.563 258.701 137.363 258.343 135.852 258.011L131.795 257.136C128.189 256.354 125.345 255.048 123.264 253.219C121.195 251.376 120.168 248.864 120.181 245.682C120.168 243.097 120.857 240.836 122.249 238.901C123.655 236.952 125.597 235.434 128.076 234.347C130.569 233.259 133.426 232.716 136.647 232.716C139.935 232.716 142.779 233.266 145.178 234.366C147.578 235.467 149.427 237.018 150.727 239.02C152.039 241.009 152.702 243.335 152.715 246H142.136ZM167.564 242.182V233.273H202.962V242.182H190.712V274H179.814V242.182H167.564ZM218.323 274V233.273H247.676V242.182H229.38V249.182H246.164V258.091H229.38V265.091H247.596V274H218.323ZM264.359 274V233.273H281.939C284.962 233.273 287.607 233.823 289.874 234.923C292.141 236.024 293.904 237.608 295.163 239.676C296.423 241.744 297.053 244.223 297.053 247.114C297.053 250.03 296.403 252.49 295.104 254.491C293.818 256.493 292.008 258.005 289.675 259.026C287.355 260.046 284.643 260.557 281.541 260.557H271.041V251.966H279.314C280.613 251.966 281.72 251.807 282.635 251.489C283.563 251.157 284.272 250.634 284.763 249.918C285.267 249.202 285.518 248.267 285.518 247.114C285.518 245.947 285.267 244.999 284.763 244.27C284.272 243.527 283.563 242.984 282.635 242.639C281.72 242.281 280.613 242.102 279.314 242.102H275.416V274H264.359ZM288.223 255.307L298.405 274H286.393L276.45 255.307H288.223ZM309.381 233.273H321.711L329.665 249.818H329.983L337.938 233.273H350.267L335.313 261.193V274H324.336V261.193L309.381 233.273ZM366.529 242.182V233.273H401.926V242.182H389.676V274H378.779V242.182H366.529ZM428.344 233.273V274H417.288V233.273H428.344ZM482.807 248.545H471.591C471.512 247.617 471.3 246.776 470.955 246.02C470.623 245.264 470.159 244.615 469.563 244.071C468.979 243.514 468.27 243.09 467.435 242.798C466.6 242.493 465.652 242.341 464.591 242.341C462.735 242.341 461.164 242.792 459.878 243.693C458.605 244.595 457.638 245.887 456.975 247.571C456.325 249.255 456 251.277 456 253.636C456 256.129 456.332 258.217 456.995 259.901C457.671 261.571 458.645 262.83 459.918 263.679C461.191 264.514 462.722 264.932 464.512 264.932C465.532 264.932 466.447 264.806 467.256 264.554C468.065 264.289 468.767 263.911 469.364 263.42C469.96 262.93 470.444 262.34 470.816 261.651C471.2 260.948 471.459 260.159 471.591 259.284L482.807 259.364C482.675 261.087 482.191 262.844 481.355 264.634C480.52 266.41 479.334 268.054 477.796 269.565C476.271 271.063 474.382 272.27 472.128 273.185C469.874 274.099 467.256 274.557 464.273 274.557C460.534 274.557 457.18 273.755 454.21 272.151C451.254 270.546 448.914 268.187 447.191 265.071C445.48 261.955 444.625 258.144 444.625 253.636C444.625 249.102 445.5 245.284 447.25 242.182C449 239.066 451.36 236.713 454.33 235.122C457.3 233.518 460.614 232.716 464.273 232.716C466.845 232.716 469.211 233.067 471.372 233.77C473.533 234.473 475.429 235.5 477.06 236.852C478.691 238.191 480.003 239.842 480.997 241.804C481.992 243.766 482.595 246.013 482.807 248.545ZM499.023 274V233.273H510.08V249.739H510.637L522.887 233.273H535.773L522.012 251.409L536.092 274H522.887L513.739 258.727L510.08 263.5V274H499.023ZM550.255 274V233.273H579.607V242.182H561.312V249.182H578.096V258.091H561.312V265.091H579.527V274H550.255ZM595.177 242.182V233.273H630.575V242.182H618.325V274H607.427V242.182H595.177ZM667.89 246C667.784 244.674 667.287 243.64 666.399 242.898C665.524 242.155 664.192 241.784 662.402 241.784C661.262 241.784 660.327 241.923 659.598 242.202C658.882 242.467 658.352 242.831 658.007 243.295C657.662 243.759 657.483 244.29 657.47 244.886C657.443 245.377 657.53 245.821 657.729 246.219C657.941 246.603 658.272 246.955 658.723 247.273C659.174 247.578 659.75 247.856 660.453 248.108C661.156 248.36 661.991 248.585 662.959 248.784L666.3 249.5C668.553 249.977 670.482 250.607 672.086 251.389C673.691 252.171 675.003 253.093 676.024 254.153C677.045 255.201 677.794 256.381 678.271 257.693C678.762 259.006 679.014 260.437 679.027 261.989C679.014 264.667 678.344 266.934 677.018 268.79C675.693 270.646 673.797 272.058 671.331 273.026C668.878 273.993 665.928 274.477 662.481 274.477C658.942 274.477 655.853 273.954 653.214 272.906C650.589 271.859 648.548 270.248 647.089 268.074C645.644 265.886 644.915 263.089 644.902 259.682H655.402C655.468 260.928 655.78 261.975 656.336 262.824C656.893 263.672 657.675 264.315 658.683 264.753C659.704 265.19 660.917 265.409 662.322 265.409C663.502 265.409 664.49 265.263 665.285 264.972C666.081 264.68 666.684 264.276 667.095 263.759C667.506 263.241 667.718 262.652 667.731 261.989C667.718 261.366 667.513 260.822 667.115 260.358C666.73 259.881 666.094 259.456 665.206 259.085C664.318 258.701 663.118 258.343 661.606 258.011L657.55 257.136C653.943 256.354 651.1 255.048 649.018 253.219C646.95 251.376 645.923 248.864 645.936 245.682C645.923 243.097 646.612 240.836 648.004 238.901C649.409 236.952 651.352 235.434 653.831 234.347C656.323 233.259 659.18 232.716 662.402 232.716C665.69 232.716 668.533 233.266 670.933 234.366C673.333 235.467 675.182 237.018 676.481 239.02C677.794 241.009 678.457 243.335 678.47 246H667.89Z" fill="#A0CD39"/>
<path d="M218.812 319V292.818H228.63C230.642 292.818 232.329 293.168 233.693 293.866C235.065 294.565 236.1 295.545 236.799 296.807C237.507 298.06 237.86 299.521 237.86 301.192C237.86 302.871 237.502 304.328 236.787 305.564C236.079 306.791 235.035 307.741 233.654 308.415C232.274 309.08 230.578 309.412 228.566 309.412H221.573V305.474H227.927C229.103 305.474 230.066 305.312 230.816 304.989C231.566 304.656 232.12 304.175 232.478 303.544C232.845 302.905 233.028 302.121 233.028 301.192C233.028 300.263 232.845 299.47 232.478 298.814C232.112 298.149 231.554 297.646 230.804 297.305C230.054 296.956 229.086 296.781 227.902 296.781H223.555V319H218.812ZM232.338 307.136L238.819 319H233.527L227.16 307.136H232.338ZM256.626 319V292.818H273.655V296.794H261.369V303.902H272.772V307.878H261.369V315.024H273.757V319H256.626ZM307.122 300.016C307.003 298.899 306.5 298.03 305.614 297.408C304.736 296.786 303.594 296.474 302.187 296.474C301.199 296.474 300.351 296.624 299.643 296.922C298.936 297.22 298.395 297.625 298.02 298.136C297.645 298.648 297.453 299.232 297.444 299.888C297.444 300.433 297.568 300.906 297.815 301.307C298.071 301.707 298.416 302.048 298.851 302.33C299.285 302.602 299.767 302.832 300.295 303.02C300.824 303.207 301.356 303.365 301.893 303.493L304.348 304.107C305.337 304.337 306.287 304.648 307.199 305.04C308.119 305.432 308.942 305.926 309.666 306.523C310.399 307.119 310.979 307.839 311.405 308.683C311.831 309.527 312.044 310.516 312.044 311.649C312.044 313.183 311.652 314.534 310.868 315.702C310.084 316.861 308.95 317.768 307.467 318.425C305.993 319.072 304.207 319.396 302.111 319.396C300.074 319.396 298.305 319.081 296.805 318.45C295.314 317.82 294.146 316.899 293.302 315.689C292.467 314.479 292.015 313.004 291.947 311.266H296.614C296.682 312.178 296.963 312.936 297.457 313.541C297.952 314.146 298.595 314.598 299.388 314.896C300.189 315.195 301.084 315.344 302.072 315.344C303.104 315.344 304.007 315.19 304.783 314.884C305.567 314.568 306.18 314.134 306.623 313.58C307.067 313.017 307.292 312.361 307.301 311.611C307.292 310.929 307.092 310.366 306.7 309.923C306.308 309.472 305.758 309.097 305.051 308.798C304.352 308.491 303.534 308.219 302.596 307.98L299.618 307.213C297.462 306.659 295.757 305.82 294.504 304.695C293.26 303.561 292.638 302.057 292.638 300.182C292.638 298.639 293.055 297.288 293.89 296.129C294.734 294.97 295.881 294.071 297.329 293.432C298.778 292.784 300.419 292.46 302.251 292.46C304.109 292.46 305.737 292.784 307.135 293.432C308.541 294.071 309.645 294.962 310.446 296.104C311.247 297.237 311.66 298.541 311.686 300.016H307.122ZM354.067 305.909C354.067 308.73 353.539 311.146 352.482 313.158C351.434 315.161 350.002 316.695 348.186 317.76C346.38 318.825 344.33 319.358 342.037 319.358C339.745 319.358 337.691 318.825 335.875 317.76C334.069 316.686 332.637 315.148 331.58 313.145C330.532 311.134 330.007 308.722 330.007 305.909C330.007 303.088 330.532 300.676 331.58 298.673C332.637 296.662 334.069 295.124 335.875 294.058C337.691 292.993 339.745 292.46 342.037 292.46C344.33 292.46 346.38 292.993 348.186 294.058C350.002 295.124 351.434 296.662 352.482 298.673C353.539 300.676 354.067 303.088 354.067 305.909ZM349.299 305.909C349.299 303.923 348.988 302.249 348.365 300.885C347.752 299.513 346.9 298.477 345.809 297.778C344.718 297.071 343.461 296.717 342.037 296.717C340.614 296.717 339.357 297.071 338.266 297.778C337.175 298.477 336.319 299.513 335.696 300.885C335.083 302.249 334.776 303.923 334.776 305.909C334.776 307.895 335.083 309.574 335.696 310.946C336.319 312.31 337.175 313.345 338.266 314.053C339.357 314.751 340.614 315.101 342.037 315.101C343.461 315.101 344.718 314.751 345.809 314.053C346.9 313.345 347.752 312.31 348.365 310.946C348.988 309.574 349.299 307.895 349.299 305.909ZM372.951 319V292.818H377.694V315.024H389.225V319H372.951ZM408.538 292.818L415.351 313.426H415.62L422.421 292.818H427.637L418.407 319H412.552L403.334 292.818H408.538ZM445.486 319V292.818H462.514V296.794H450.228V303.902H461.632V307.878H450.228V315.024H462.616V319H445.486Z" fill="#3771AC"/>
<defs>
<linearGradient id="paint0_linear_1_16" x1="306.5" y1="33.5" x2="386.5" y2="172.5" gradientUnits="userSpaceOnUse">
<stop offset="0.615385" stop-color="#2D2D87"/>
<stop offset="1" stop-color="#3771AC"/>
</linearGradient>
<linearGradient id="paint1_linear_1_16" x1="311" y1="118.5" x2="336.5" y2="156.5" gradientUnits="userSpaceOnUse">
<stop offset="0.5625" stop-color="#2D2D87"/>
<stop offset="1" stop-color="#304594"/>
</linearGradient>
</defs>
</svg>
