<svg width="325" height="197" viewBox="0 0 325 197" fill="none" xmlns="http://www.w3.org/2000/svg">
<path d="M20.6719 189.943C15.2417 193.112 25.1719 186.933 20.6719 189.943C97.6719 171.933 93.547 25.4433 156.672 25.4433L305.672 25.4433C233.172 30.4536 224.5 189.17 155 189.943C85.5 190.716 20.6719 189.943 20.6719 189.943Z" fill="url(#paint0_linear_1_17)"/>
<path d="M1.99998 166.727C-3.43022 169.895 6.49998 163.716 1.99998 166.727C79 148.716 74.8751 2.22682 138 2.22683L287 2.22682C214.5 7.23718 147 166.727 147 166.727H1.99998Z" fill="#A0CD39"/>
<path d="M119.5 33.7165V84.2165C119.5 84.2165 122.5 86.7165 130.5 86.7165C138.5 86.7165 141 84.2165 141 84.2165V91.2165L143 96.2165C143 96.2165 142.5 102.216 133 105.216C123.5 108.216 107.5 100.716 107.5 100.716C107.5 100.716 112 114.216 110 134.216C108 154.216 101.5 167.716 101.5 167.716H129.5C159.5 167.716 186 92.7165 186 92.7165L185 91.7165L171 78.2165C171 78.2165 180.5 68.2165 182 65.2165C183.5 62.2165 186 53.7165 185.5 48.2165C185 42.7165 185 37.7165 178.5 28.2165C172 18.7165 165 17.2165 155.5 17.2165C146 17.2165 129.5 20.7165 129.5 20.7165C129.5 20.7165 123.5 20.2165 120.5 19.7165C117.5 19.2165 112 15.2165 112 15.2165C112 15.2165 112 23.7165 113.5 27.7165C115 31.7165 119.5 33.7165 119.5 33.7165Z" fill="url(#paint1_linear_1_17)"/>
<path d="M165 100.716H145.5V106.716L150.5 110.216C150.5 110.216 153 133.716 135.5 155.216C118 176.716 91.5 181.216 91.5 181.216L94 196.716H121C129 194.216 140 180.716 150.5 162.716C161 144.716 159.5 110.216 159.5 110.216L164.5 106.716L165 100.716Z" fill="#B4D433"/>
<path d="M126.625 30.2727H140.386L149.852 53.3409H150.33L159.795 30.2727H173.557V71H162.739V47.4545H162.42L153.352 70.6818H146.83L137.761 47.2955H137.443V71H126.625V30.2727Z" fill="#A0CD39"/>
<defs>
<linearGradient id="paint0_linear_1_17" x1="115.5" y1="32.7165" x2="195.5" y2="171.716" gradientUnits="userSpaceOnUse">
<stop offset="0.615385" stop-color="#2D2D87"/>
<stop offset="1" stop-color="#3771AC"/>
</linearGradient>
<linearGradient id="paint1_linear_1_17" x1="120" y1="117.716" x2="145.5" y2="155.716" gradientUnits="userSpaceOnUse">
<stop offset="0.5625" stop-color="#2D2D87"/>
<stop offset="1" stop-color="#304594"/>
</linearGradient>
</defs>
</svg>
